<svg xmlns="http://www.w3.org/2000/svg" viewBox="0 0 1400 940" width="1400" height="940" font-family="IBM Plex Sans, Segoe UI, sans-serif">
<defs>
<marker id="ar" markerWidth="9" markerHeight="9" refX="8" refY="3"
        orient="auto" markerUnits="strokeWidth">
  <path d="M0,0 L0,6 L8,3 z" fill="#00d4ff"/>
</marker>
<marker id="arDim" markerWidth="9" markerHeight="9" refX="8" refY="3"
        orient="auto" markerUnits="strokeWidth">
  <path d="M0,0 L0,6 L8,3 z" fill="#8698ad"/>
</marker>
</defs>
<rect width="1400" height="940" fill="#0b1017"/>
<rect x="46" y="34" width="3" height="46" fill="#00d4ff"/>
<text x="66" y="58" fill="#e8eef5" font-size="25" font-weight="700">Unified Asset &amp; Operations Brain</text>
<text x="66" y="77" fill="#00d4ff" font-size="11.5" font-family="IBM Plex Mono, monospace" letter-spacing="2.2">SYSTEM ARCHITECTURE &#183; ET AI HACKATHON 2026 &#183; PROBLEM STATEMENT 8</text>
<text x="1354" y="58" text-anchor="end" fill="#3ddc97" font-size="12" font-family="IBM Plex Mono, monospace" font-weight="600">100% OFFLINE</text>
<text x="1354" y="76" text-anchor="end" fill="#8698ad" font-size="10.5" font-family="IBM Plex Mono, monospace">NO API &#183; NO CLOUD &#183; ZERO COST</text>
<rect x="46" y="102" width="1308" height="118" rx="3" fill="#131b26" stroke="#263241"/>
<rect x="46" y="102" width="3" height="118" fill="#00d4ff"/>
<text x="64" y="123" fill="#00d4ff" font-size="10.5" font-family="IBM Plex Mono, monospace" letter-spacing="1.8">LAYER 1 — SOURCE DOCUMENTS</text>
<text x="1336" y="123" text-anchor="end" fill="#8698ad" font-size="10" font-family="IBM Plex Mono, monospace">heterogeneous, as-is, no pre-processing</text>
<rect x="74" y="136" width="196" height="72" rx="3" fill="#1a2430" stroke="#263241"/>
<rect x="74" y="136" width="196" height="2.5" fill="#8698ad"/>
<text x="87" y="161" fill="#e8eef5" font-size="13" font-weight="600">P&amp;IDs / Drawings</text>
<text x="87" y="180" fill="#8698ad" font-size="10.6" font-family="IBM Plex Mono, monospace">PDF, scanned</text>
<text x="87" y="195" fill="#8698ad" font-size="10.6" font-family="IBM Plex Mono, monospace">OCR fallback</text>
<rect x="282" y="136" width="196" height="72" rx="3" fill="#1a2430" stroke="#263241"/>
<rect x="282" y="136" width="196" height="2.5" fill="#8698ad"/>
<text x="295" y="161" fill="#e8eef5" font-size="13" font-weight="600">Work Orders</text>
<text x="295" y="180" fill="#8698ad" font-size="10.6" font-family="IBM Plex Mono, monospace">CMMS export</text>
<text x="295" y="195" fill="#8698ad" font-size="10.6" font-family="IBM Plex Mono, monospace">CSV / XLSX</text>
<rect x="490" y="136" width="196" height="72" rx="3" fill="#1a2430" stroke="#263241"/>
<rect x="490" y="136" width="196" height="2.5" fill="#8698ad"/>
<text x="503" y="161" fill="#e8eef5" font-size="13" font-weight="600">Inspection</text>
<text x="503" y="180" fill="#8698ad" font-size="10.6" font-family="IBM Plex Mono, monospace">thickness surveys</text>
<text x="503" y="195" fill="#8698ad" font-size="10.6" font-family="IBM Plex Mono, monospace">NDT records</text>
<rect x="698" y="136" width="196" height="72" rx="3" fill="#1a2430" stroke="#263241"/>
<rect x="698" y="136" width="196" height="2.5" fill="#8698ad"/>
<text x="711" y="161" fill="#e8eef5" font-size="13" font-weight="600">Procedures</text>
<text x="711" y="180" fill="#8698ad" font-size="10.6" font-family="IBM Plex Mono, monospace">SOPs, manuals</text>
<text x="711" y="195" fill="#8698ad" font-size="10.6" font-family="IBM Plex Mono, monospace">DOCX / PDF</text>
<rect x="906" y="136" width="196" height="72" rx="3" fill="#1a2430" stroke="#263241"/>
<rect x="906" y="136" width="196" height="2.5" fill="#8698ad"/>
<text x="919" y="161" fill="#e8eef5" font-size="13" font-weight="600">Permits</text>
<text x="919" y="180" fill="#8698ad" font-size="10.6" font-family="IBM Plex Mono, monospace">PTW, gas tests</text>
<text x="919" y="195" fill="#8698ad" font-size="10.6" font-family="IBM Plex Mono, monospace">TXT / PDF</text>
<rect x="1114" y="136" width="196" height="72" rx="3" fill="#1a2430" stroke="#263241"/>
<rect x="1114" y="136" width="196" height="2.5" fill="#8698ad"/>
<text x="1127" y="161" fill="#e8eef5" font-size="13" font-weight="600">Incidents</text>
<text x="1127" y="180" fill="#8698ad" font-size="10.6" font-family="IBM Plex Mono, monospace">RCA, near-miss</text>
<text x="1127" y="195" fill="#8698ad" font-size="10.6" font-family="IBM Plex Mono, monospace">audit findings</text>
<rect x="46" y="250" width="1308" height="128" rx="3" fill="#131b26" stroke="#263241"/>
<rect x="46" y="250" width="3" height="128" fill="#00d4ff"/>
<text x="64" y="271" fill="#00d4ff" font-size="10.5" font-family="IBM Plex Mono, monospace" letter-spacing="1.8">LAYER 2 — INGESTION PIPELINE</text>
<text x="1336" y="271" text-anchor="end" fill="#8698ad" font-size="10" font-family="IBM Plex Mono, monospace">core/ingest.py</text>
<rect x="74" y="286" width="300" height="78" rx="3" fill="#1a2430" stroke="#263241"/>
<rect x="74" y="286" width="300" height="2.5" fill="#00d4ff"/>
<text x="87" y="311" fill="#e8eef5" font-size="13" font-weight="600">Format Extractors</text>
<text x="87" y="330" fill="#8698ad" font-size="10.6" font-family="IBM Plex Mono, monospace">pdfplumber -&gt; tables + text</text>
<text x="87" y="345" fill="#8698ad" font-size="10.6" font-family="IBM Plex Mono, monospace">python-docx / openpyxl</text>
<text x="87" y="360" fill="#8698ad" font-size="10.6" font-family="IBM Plex Mono, monospace">pytesseract OCR fallback</text>
<rect x="390" y="286" width="300" height="78" rx="3" fill="#1a2430" stroke="#263241"/>
<rect x="390" y="286" width="300" height="2.5" fill="#00d4ff"/>
<text x="403" y="311" fill="#e8eef5" font-size="13" font-weight="600">Type Classifier</text>
<text x="403" y="330" fill="#8698ad" font-size="10.6" font-family="IBM Plex Mono, monospace">keyword-signature voting</text>
<text x="403" y="345" fill="#8698ad" font-size="10.6" font-family="IBM Plex Mono, monospace">10 document classes</text>
<text x="403" y="360" fill="#8698ad" font-size="10.6" font-family="IBM Plex Mono, monospace">measured 100% accuracy</text>
<rect x="706" y="286" width="300" height="78" rx="3" fill="#1a2430" stroke="#263241"/>
<rect x="706" y="286" width="300" height="2.5" fill="#00d4ff"/>
<text x="719" y="311" fill="#e8eef5" font-size="13" font-weight="600">Structural Chunker</text>
<text x="719" y="330" fill="#8698ad" font-size="10.6" font-family="IBM Plex Mono, monospace">section-boundary first</text>
<text x="719" y="345" fill="#8698ad" font-size="10.6" font-family="IBM Plex Mono, monospace">900 char / 150 overlap</text>
<text x="719" y="360" fill="#8698ad" font-size="10.6" font-family="IBM Plex Mono, monospace">page + section retained</text>
<rect x="1022" y="286" width="304" height="78" rx="3" fill="#1a2430" stroke="#263241"/>
<rect x="1022" y="286" width="304" height="2.5" fill="#3ddc97"/>
<text x="1035" y="311" fill="#e8eef5" font-size="13" font-weight="600">Normalised Record</text>
<text x="1035" y="330" fill="#8698ad" font-size="10.6" font-family="IBM Plex Mono, monospace">doc_id, type, chunks[]</text>
<text x="1035" y="345" fill="#8698ad" font-size="10.6" font-family="IBM Plex Mono, monospace">entities[], metadata</text>
<text x="1035" y="360" fill="#8698ad" font-size="10.6" font-family="IBM Plex Mono, monospace">single internal schema</text>
<line x1="224" y1="208" x2="224" y2="284" stroke="#8698ad" stroke-width="1.5" marker-end="url(#arDim)"/>
<line x1="540" y1="208" x2="540" y2="284" stroke="#8698ad" stroke-width="1.5" marker-end="url(#arDim)"/>
<line x1="856" y1="208" x2="856" y2="284" stroke="#8698ad" stroke-width="1.5" marker-end="url(#arDim)"/>
<rect x="46" y="398" width="1308" height="128" rx="3" fill="#131b26" stroke="#263241"/>
<rect x="46" y="398" width="3" height="128" fill="#00d4ff"/>
<text x="64" y="419" fill="#00d4ff" font-size="10.5" font-family="IBM Plex Mono, monospace" letter-spacing="1.8">LAYER 3 — ONTOLOGY EXTRACTION</text>
<text x="1336" y="419" text-anchor="end" fill="#8698ad" font-size="10" font-family="IBM Plex Mono, monospace">core/ontology.py &amp;#183; deterministic, auditable</text>
<rect x="74" y="434" width="147" height="60" rx="3" fill="#1a2430" stroke="#263241"/>
<rect x="74" y="434" width="147" height="2.5" fill="#00d4ff"/>
<text x="85" y="458" fill="#00d4ff" font-size="10.4" font-family="IBM Plex Mono, monospace" letter-spacing="0.8">EQUIPMENT</text>
<text x="85" y="477" fill="#8698ad" font-size="10">ISA-5.1 tags</text>
<rect x="231" y="434" width="147" height="60" rx="3" fill="#1a2430" stroke="#263241"/>
<rect x="231" y="434" width="147" height="2.5" fill="#ff6b6b"/>
<text x="242" y="458" fill="#ff6b6b" font-size="10.4" font-family="IBM Plex Mono, monospace" letter-spacing="0.8">REGULATION</text>
<text x="242" y="477" fill="#8698ad" font-size="10">OISD, API, IS</text>
<rect x="388" y="434" width="147" height="60" rx="3" fill="#1a2430" stroke="#263241"/>
<rect x="388" y="434" width="147" height="2.5" fill="#ffd93d"/>
<text x="399" y="458" fill="#ffd93d" font-size="10.4" font-family="IBM Plex Mono, monospace" letter-spacing="0.8">PARAMETER</text>
<text x="399" y="477" fill="#8698ad" font-size="10">value + unit</text>
<rect x="545" y="434" width="147" height="60" rx="3" fill="#1a2430" stroke="#263241"/>
<rect x="545" y="434" width="147" height="2.5" fill="#a78bfa"/>
<text x="556" y="458" fill="#a78bfa" font-size="10.4" font-family="IBM Plex Mono, monospace" letter-spacing="0.8">PERSONNEL</text>
<text x="556" y="477" fill="#8698ad" font-size="10">roles, names</text>
<rect x="702" y="434" width="147" height="60" rx="3" fill="#1a2430" stroke="#263241"/>
<rect x="702" y="434" width="147" height="2.5" fill="#ff8c42"/>
<text x="713" y="458" fill="#ff8c42" font-size="10.4" font-family="IBM Plex Mono, monospace" letter-spacing="0.8">FAILURE</text>
<text x="713" y="477" fill="#8698ad" font-size="10">ISO 14224</text>
<rect x="859" y="434" width="147" height="60" rx="3" fill="#1a2430" stroke="#263241"/>
<rect x="859" y="434" width="147" height="2.5" fill="#3ddc97"/>
<text x="870" y="458" fill="#3ddc97" font-size="10.4" font-family="IBM Plex Mono, monospace" letter-spacing="0.8">CHEMICAL</text>
<text x="870" y="477" fill="#8698ad" font-size="10">H2S, LPG, COG</text>
<rect x="1016" y="434" width="147" height="60" rx="3" fill="#1a2430" stroke="#263241"/>
<rect x="1016" y="434" width="147" height="2.5" fill="#94a3b8"/>
<text x="1027" y="458" fill="#94a3b8" font-size="10.4" font-family="IBM Plex Mono, monospace" letter-spacing="0.8">DOCUMENT</text>
<text x="1027" y="477" fill="#8698ad" font-size="10">WO, PTW, NCR</text>
<rect x="1173" y="434" width="147" height="60" rx="3" fill="#1a2430" stroke="#263241"/>
<rect x="1173" y="434" width="147" height="2.5" fill="#f472b6"/>
<text x="1184" y="458" fill="#f472b6" font-size="10.4" font-family="IBM Plex Mono, monospace" letter-spacing="0.8">LOCATION</text>
<text x="1184" y="477" fill="#8698ad" font-size="10">units, zones</text>
<line x1="700" y1="364" x2="700" y2="432" stroke="#8698ad" stroke-width="1.5" marker-end="url(#arDim)"/>
<text x="716" y="404" fill="#8698ad" font-size="10" font-family="IBM Plex Mono, monospace">94.1% recall vs expert labels</text>
<rect x="46" y="534" width="1308" height="158" rx="3" fill="#131b26" stroke="#263241"/>
<rect x="46" y="534" width="3" height="158" fill="#00d4ff"/>
<text x="64" y="555" fill="#00d4ff" font-size="10.5" font-family="IBM Plex Mono, monospace" letter-spacing="1.8">LAYER 4 — INTELLIGENCE CORE</text>
<text x="1336" y="555" text-anchor="end" fill="#8698ad" font-size="10" font-family="IBM Plex Mono, monospace">core/graph.py &amp;#183; core/retrieval.py</text>
<rect x="74" y="572" width="386" height="104" rx="3" fill="#1a2430" stroke="#263241"/>
<rect x="74" y="572" width="386" height="2.5" fill="#3ddc97"/>
<text x="87" y="597" fill="#e8eef5" font-size="13" font-weight="600">Knowledge Graph  (networkx)</text>
<text x="87" y="616" fill="#8698ad" font-size="10.6" font-family="IBM Plex Mono, monospace">nodes  : documents + 8 entity classes</text>
<text x="87" y="631" fill="#8698ad" font-size="10.6" font-family="IBM Plex Mono, monospace">edges  : MENTIONS  (doc -&gt; entity)</text>
<text x="87" y="646" fill="#8698ad" font-size="10.6" font-family="IBM Plex Mono, monospace">         CO_OCCURS (entity &lt;-&gt; entity)</text>
<text x="87" y="661" fill="#8698ad" font-size="10.6" font-family="IBM Plex Mono, monospace">every edge traceable to source documents</text>
<rect x="478" y="572" width="424" height="104" rx="3" fill="#1a2430" stroke="#263241"/>
<rect x="478" y="572" width="424" height="2.5" fill="#00d4ff"/>
<text x="491" y="597" fill="#e8eef5" font-size="13" font-weight="600">Hybrid Retrieval  (5 signals)</text>
<text x="491" y="616" fill="#8698ad" font-size="10.6" font-family="IBM Plex Mono, monospace">TF-IDF cosine        w 0.25   lexical</text>
<text x="491" y="631" fill="#8698ad" font-size="10.6" font-family="IBM Plex Mono, monospace">BM25                 w 0.28   saturation</text>
<text x="491" y="646" fill="#8698ad" font-size="10.6" font-family="IBM Plex Mono, monospace">entity overlap       w 0.19   ontology-aware</text>
<text x="491" y="661" fill="#8698ad" font-size="10.6" font-family="IBM Plex Mono, monospace">query intent         w 0.16   answer-type match</text>
<text x="491" y="676" fill="#8698ad" font-size="10.6" font-family="IBM Plex Mono, monospace">subject identity     w 0.12   authoritative source</text>
<rect x="920" y="572" width="406" height="104" rx="3" fill="#1a2430" stroke="#263241"/>
<rect x="920" y="572" width="406" height="2.5" fill="#ffb020"/>
<text x="933" y="597" fill="#e8eef5" font-size="13" font-weight="600">Analytics Engines</text>
<text x="933" y="616" fill="#8698ad" font-size="10.6" font-family="IBM Plex Mono, monospace">pattern mining     recurring failure pairs</text>
<text x="933" y="631" fill="#8698ad" font-size="10.6" font-family="IBM Plex Mono, monospace">gap detection      undocumented assets</text>
<text x="933" y="646" fill="#8698ad" font-size="10.6" font-family="IBM Plex Mono, monospace">compliance matrix  standard -&gt; procedure</text>
<text x="933" y="661" fill="#8698ad" font-size="10.6" font-family="IBM Plex Mono, monospace">centrality         knowledge hubs</text>
<line x1="268" y1="494" x2="268" y2="570" stroke="#8698ad" stroke-width="1.5" marker-end="url(#arDim)"/>
<line x1="690" y1="494" x2="690" y2="570" stroke="#8698ad" stroke-width="1.5" marker-end="url(#arDim)"/>
<line x1="1120" y1="494" x2="1120" y2="570" stroke="#8698ad" stroke-width="1.5" marker-end="url(#arDim)"/>
<line x1="462" y1="624" x2="476" y2="624" stroke="#00d4ff" stroke-width="1.5" marker-end="url(#ar)"/>
<line x1="904" y1="624" x2="918" y2="624" stroke="#00d4ff" stroke-width="1.5" marker-end="url(#ar)"/>
<rect x="46" y="712" width="1308" height="132" rx="3" fill="#131b26" stroke="#263241"/>
<rect x="46" y="712" width="3" height="132" fill="#00d4ff"/>
<text x="64" y="733" fill="#00d4ff" font-size="10.5" font-family="IBM Plex Mono, monospace" letter-spacing="1.8">LAYER 5 — SYNTHESIS</text>
<text x="1336" y="733" text-anchor="end" fill="#8698ad" font-size="10" font-family="IBM Plex Mono, monospace">extractive only &amp;#183; no generative model &amp;#183; safety property</text>
<rect x="74" y="748" width="620" height="78" rx="3" fill="#1a2430" stroke="#263241"/>
<rect x="74" y="748" width="620" height="2.5" fill="#3ddc97"/>
<text x="87" y="773" fill="#e8eef5" font-size="13" font-weight="600">Answer Assembly</text>
<text x="87" y="792" fill="#8698ad" font-size="10.6" font-family="IBM Plex Mono, monospace">sentence ranking: intent evidence + specificity + declarativeness</text>
<text x="87" y="807" fill="#8698ad" font-size="10.6" font-family="IBM Plex Mono, monospace">confidence = retrieval score + source agreement + corroboration</text>
<text x="87" y="822" fill="#8698ad" font-size="10.6" font-family="IBM Plex Mono, monospace">abstains when evidence is absent — never fabricates</text>
<rect x="710" y="748" width="616" height="78" rx="3" fill="#1a2430" stroke="#263241"/>
<rect x="710" y="748" width="616" height="2.5" fill="#00d4ff"/>
<text x="723" y="773" fill="#e8eef5" font-size="13" font-weight="600">Citation Trail</text>
<text x="723" y="792" fill="#8698ad" font-size="10.6" font-family="IBM Plex Mono, monospace">every sentence -&gt; filename, page, section, chunk id</text>
<text x="723" y="807" fill="#8698ad" font-size="10.6" font-family="IBM Plex Mono, monospace">per-signal score breakdown exposed to the user</text>
<text x="723" y="822" fill="#8698ad" font-size="10.6" font-family="IBM Plex Mono, monospace">reproducible: identical query returns identical ranking</text>
<line x1="384" y1="676" x2="384" y2="746" stroke="#8698ad" stroke-width="1.5" marker-end="url(#arDim)"/>
<line x1="1018" y1="676" x2="1018" y2="746" stroke="#8698ad" stroke-width="1.5" marker-end="url(#arDim)"/>
<rect x="46" y="856" width="1308" height="52" rx="3" fill="#131b26" stroke="#263241"/>
<rect x="46" y="856" width="3" height="52" fill="#00d4ff"/>
<text x="64" y="876" fill="#00d4ff" font-size="10.5" font-family="IBM Plex Mono, monospace" letter-spacing="1.8">LAYER 6 — INTERFACE  (app.py, Streamlit)</text>
<rect x="300" y="866" width="33.2" height="26" rx="2" fill="#1a2430" stroke="#263241"/>
<text x="316.6" y="883" text-anchor="middle" fill="#8698ad" font-size="10.6" font-family="IBM Plex Mono, monospace">Ask</text>
<rect x="344.2" y="866" width="122.0" height="26" rx="2" fill="#1a2430" stroke="#263241"/>
<text x="405.2" y="883" text-anchor="middle" fill="#8698ad" font-size="10.6" font-family="IBM Plex Mono, monospace">Knowledge Graph</text>
<rect x="477.2" y="866" width="70.2" height="26" rx="2" fill="#1a2430" stroke="#263241"/>
<text x="512.3" y="883" text-anchor="middle" fill="#8698ad" font-size="10.6" font-family="IBM Plex Mono, monospace">Patterns</text>
<rect x="558.4" y="866" width="40.6" height="26" rx="2" fill="#1a2430" stroke="#263241"/>
<text x="578.6999999999999" y="883" text-anchor="middle" fill="#8698ad" font-size="10.6" font-family="IBM Plex Mono, monospace">Gaps</text>
<rect x="610.0" y="866" width="85.0" height="26" rx="2" fill="#1a2430" stroke="#263241"/>
<text x="652.5" y="883" text-anchor="middle" fill="#8698ad" font-size="10.6" font-family="IBM Plex Mono, monospace">Compliance</text>
<rect x="706.0" y="866" width="55.400000000000006" height="26" rx="2" fill="#1a2430" stroke="#263241"/>
<text x="733.7" y="883" text-anchor="middle" fill="#8698ad" font-size="10.6" font-family="IBM Plex Mono, monospace">Corpus</text>
<text x="1336" y="886" text-anchor="end" fill="#3ddc97" font-size="10.4" font-family="IBM Plex Mono, monospace">query latency 3.2 ms &#183; cost 0.00 INR</text>
<line x1="700" y1="826" x2="700" y2="854" stroke="#8698ad" stroke-width="1.5" marker-end="url(#arDim)"/>
</svg>